<svg width="68" height="90" viewBox="0 0 68 90" fill="none" xmlns="http://www.w3.org/2000/svg">
<path d="M1.59119 85.2095V88.7955H0.96051V85.2095H-3.05176e-05V84.6167H2.54925V85.2095H1.59119Z" fill="#050505"/>
<path d="M8.11089 87.7802H6.32197L5.8564 88.795H5.17719L7.24495 84.354L9.23938 88.795H8.54918L8.11089 87.7802ZM7.85366 87.1874L7.23397 85.7666L6.58451 87.1874H7.85366Z" fill="#050505"/>
<path d="M14.4924 86.6194H16.219V86.7575C16.219 87.0715 16.1821 87.3492 16.1081 87.5912C16.0361 87.8148 15.9143 88.0242 15.7428 88.2191C15.3548 88.6556 14.8616 88.8739 14.2625 88.8739C13.6778 88.8739 13.1772 88.6627 12.7605 88.2407C12.3439 87.8166 12.1352 87.3078 12.1352 86.7143C12.1352 86.1081 12.347 85.594 12.7712 85.1716C13.1953 84.7475 13.7111 84.5356 14.3191 84.5356C14.6458 84.5356 14.9505 84.6026 15.234 84.7358C15.5047 84.8694 15.7708 85.0859 16.0322 85.3853L15.583 85.8158C15.2404 85.3594 14.8226 85.1309 14.3301 85.1309C13.8879 85.1309 13.5173 85.2832 13.2179 85.5883C12.9185 85.8877 12.7687 86.2633 12.7687 86.714C12.7687 87.1795 12.9356 87.5629 13.2693 87.8641C13.5815 88.1436 13.9198 88.2836 14.2841 88.2836C14.5944 88.2836 14.8729 88.179 15.1202 87.9696C15.3672 87.7585 15.5054 87.5058 15.5341 87.2118H14.492L14.4924 86.6194Z" fill="#050505"/>
<path d="M22.3316 84.6167V88.2027H23.5603V88.7955H21.7013V84.6167H22.3316Z" fill="#050505"/>
<path d="M27.5602 84.6167V88.7951H26.9295V84.6167H27.5602Z" fill="#050505"/>
<path d="M31.3354 88.7951V84.3325L34.3828 87.5206V84.6167H35.0135V89.0495L31.966 85.8695V88.7951H31.3354Z" fill="#050505"/>
<path d="M41.0917 85.2095H39.4165V86.2136H41.0432V86.8063H39.4165V88.2027H41.0917V88.7955H38.7859V84.6167H41.0917V85.2095Z" fill="#050505"/>
<path d="M47.1196 86.2511H48.922V84.6167H49.5523V88.7951H48.922V86.8439H47.1196V88.7951H46.489V84.6167H47.1196V86.2511Z" fill="#050505"/>
<path d="M55.6309 85.2095H53.9557V86.2136H55.5824V86.8063H53.9557V88.2027H55.6309V88.7955H53.3251V84.6167H55.6309V85.2095Z" fill="#050505"/>
<path d="M60.6459 87.0143L61.9395 88.7951H61.1681L59.9748 87.0848H59.8611V88.7951H59.2304V84.6167H59.9691C60.5212 84.6167 60.9198 84.7205 61.1653 84.9278C61.436 85.1588 61.571 85.4635 61.571 85.8426C61.571 86.1385 61.4863 86.3929 61.3166 86.6058C61.1472 86.8188 60.9237 86.9548 60.6459 87.0143ZM59.8611 86.5353H60.0613C60.6583 86.5353 60.957 86.3071 60.957 85.8508C60.957 85.4231 60.6664 85.2095 60.0857 85.2095H59.8611V86.5353Z" fill="#050505"/>
<path d="M67.6443 85.2095H65.9691V86.2136H67.5957V86.8063H65.9691V88.2027H67.6443V88.7955H65.3384V84.6167H67.6443V85.2095Z" fill="#050505"/>
<path d="M42.0353 0V12.0913L13.5928 40.5333V28.4421L42.0353 0Z" fill="#050505"/>
<path d="M42.0353 24.103V36.1943L13.5928 64.6367V52.5455L42.0353 24.103Z" fill="#050505"/>
<path d="M54.0514 0V12.0913L25.6093 40.5333V28.4421L54.0514 0Z" fill="#050505"/>
<path d="M54.0514 24.103V36.1943L25.6093 64.6367V52.5455L54.0514 24.103Z" fill="#050505"/>
<path d="M5.63283 74.3661C5.35363 74.0656 5.08365 73.8654 4.82252 73.7651C4.56139 73.6649 4.29849 73.6149 4.03382 73.6149C3.64018 73.6149 3.28445 73.6847 2.96627 73.8243C2.64775 73.9639 2.37422 74.157 2.14533 74.4036C1.91609 74.6506 1.73929 74.9386 1.61422 75.2674C1.48879 75.5966 1.42643 75.9505 1.42643 76.3296C1.42643 76.7375 1.48915 77.113 1.61422 77.4564C1.73929 77.7997 1.91645 78.0966 2.14533 78.3471C2.37422 78.5976 2.64775 78.7943 2.96627 78.9374C3.28445 79.0805 3.64053 79.1521 4.03382 79.1521C4.34136 79.1521 4.64005 79.0788 4.92987 78.9321C5.2197 78.7854 5.48969 78.5512 5.73983 78.2291L6.85592 79.0231C6.51259 79.4951 6.09379 79.8388 5.60023 80.0531C5.10668 80.2678 4.58088 80.3752 4.02284 80.3752C3.43609 80.3752 2.89789 80.2802 2.40788 80.0907C1.91787 79.9011 1.49588 79.6329 1.14156 79.2857C0.787607 78.9388 0.51018 78.5221 0.309994 78.0357C0.109807 77.5492 0.00953674 77.0092 0.00953674 76.4154C0.00953674 75.8074 0.109807 75.2547 0.309994 74.7576C0.51018 74.2605 0.787607 73.8367 1.14156 73.4859C1.49588 73.1355 1.91751 72.8655 2.40788 72.6756C2.89789 72.4861 3.43609 72.3911 4.02284 72.3911C4.53801 72.3911 5.01562 72.4822 5.45532 72.6646C5.89538 72.8471 6.30461 73.1564 6.68408 73.5929L5.63283 74.3661Z" fill="#050505"/>
<path d="M9.50656 76.4158C9.50656 75.8078 9.60683 75.2551 9.80702 74.758C10.0072 74.2609 10.2846 73.8371 10.6386 73.4863C10.9929 73.1359 11.4145 72.8659 11.9049 72.676C12.3949 72.4865 12.9331 72.3915 13.5199 72.3915C14.1137 72.3844 14.6572 72.4719 15.1511 72.6544C15.6447 72.8369 16.0702 73.1033 16.4281 73.4537C16.7859 73.8045 17.0648 74.2265 17.2649 74.72C17.4651 75.2136 17.5654 75.7646 17.5654 76.3726C17.5654 76.9664 17.4651 77.5064 17.2649 77.9928C17.0644 78.4793 16.7856 78.8981 16.4281 79.2485C16.0702 79.5989 15.6447 79.8728 15.1511 80.0695C14.6576 80.2661 14.1137 80.3681 13.5199 80.3752C12.9331 80.3752 12.3949 80.2803 11.9049 80.0907C11.4149 79.9012 10.9929 79.633 10.6386 79.2857C10.2846 78.9389 10.0072 78.5222 9.80702 78.0357C9.60683 77.5496 9.50656 77.0096 9.50656 76.4158ZM10.9227 76.3297C10.9227 76.7375 10.9855 77.1131 11.1105 77.4564C11.2356 77.7997 11.4128 78.0966 11.6416 78.3471C11.8705 78.5976 12.1441 78.7943 12.4626 78.9374C12.7808 79.0806 13.1368 79.1521 13.5301 79.1521C13.9234 79.1521 14.2813 79.0806 14.6033 78.9374C14.9251 78.7943 15.2007 78.5976 15.4296 78.3471C15.6585 78.097 15.8356 77.8001 15.9607 77.4564C16.0858 77.1131 16.1485 76.7375 16.1485 76.3297C16.1485 75.9506 16.0858 75.5966 15.9607 75.2675C15.8353 74.9387 15.6585 74.6503 15.4296 74.4037C15.2007 74.1567 14.9251 73.9636 14.6033 73.8244C14.2813 73.6848 13.9234 73.615 13.5301 73.615C13.1365 73.615 12.7808 73.6848 12.4626 73.8244C12.1441 73.964 11.8705 74.1571 11.6416 74.4037C11.4124 74.6506 11.2356 74.9387 11.1105 75.2675C10.9855 75.5966 10.9227 75.9506 10.9227 76.3297Z" fill="#050505"/>
<path d="M21.0313 72.5845H23.0916L25.1197 77.907L27.1694 72.5845H29.2081V80.182H27.9205V73.8724H27.8989L25.592 80.182H24.6477L22.3404 73.8724H22.3188V80.182H21.0313V72.5845Z" fill="#050505"/>
<path d="M33.0818 72.5845H35.6357C36.0006 72.5845 36.3528 72.6203 36.6926 72.6918C37.0324 72.7634 37.3311 72.8832 37.5886 73.0515C37.8462 73.2198 38.0517 73.4451 38.2059 73.7275C38.3596 74.0102 38.4365 74.3624 38.4365 74.7844C38.4365 75.2638 38.3543 75.65 38.1896 75.9433C38.0248 76.2367 37.803 76.4638 37.5242 76.6247C37.245 76.7856 36.9215 76.8947 36.553 76.9521C36.1845 77.0095 35.8001 77.0378 35.3993 77.0378H34.4335V80.182H33.0814L33.0818 72.5845ZM35.2495 75.8789C35.4426 75.8789 35.6428 75.8718 35.8504 75.8573C36.0577 75.8431 36.249 75.8002 36.4244 75.7286C36.5998 75.6571 36.7425 75.5501 36.8538 75.4069C36.9647 75.2638 37.02 75.0636 37.02 74.806C37.02 74.57 36.9697 74.3823 36.8697 74.2427C36.7695 74.1031 36.6409 73.9957 36.4835 73.9206C36.3262 73.8455 36.1508 73.7973 35.9577 73.7757C35.7646 73.7541 35.5786 73.7434 35.3997 73.7434H34.4338V75.8789H35.2495Z" fill="#050505"/>
<path d="M43.4479 72.5845H44.6175L47.8903 80.182H46.3451L45.6369 78.4437H42.3425L41.6558 80.182H40.1429L43.4479 72.5845ZM45.1646 77.2848L43.995 74.1945L42.8038 77.2848H45.1646Z" fill="#050505"/>
<path d="M50.8839 72.5845H52.676L56.3566 78.2287H56.3782V72.5845H57.7302V80.182H56.0132L52.2575 74.3553H52.2359V80.182H50.8839V72.5845Z" fill="#050505"/>
<path d="M63.4283 76.9305L60.574 72.5845H62.2693L64.1366 75.6107L66.0251 72.5845H67.6347L64.7804 76.9305V80.182H63.4283V76.9305Z" fill="#050505"/>
</svg>
