<svg width="60" height="60" viewBox="0 0 60 60" fill="none" xmlns="http://www.w3.org/2000/svg">
<path d="M22.5 7.5H5.625C2.52375 7.5 0 10.0237 0 13.125V30C0 33.1012 2.52375 35.625 5.625 35.625H13.1944L10.3481 50.2687C10.2956 50.54 10.3037 50.8195 10.3719 51.0873C10.44 51.3551 10.5664 51.6045 10.7422 51.8177C10.918 52.0309 11.1386 52.2026 11.3885 52.3205C11.6384 52.4385 11.9112 52.4998 12.1875 52.5H18.2625C19.8937 52.5 21.3412 51.4331 21.8363 49.8881L27.2925 36.9412C27.3244 36.8662 27.3506 36.7913 27.3731 36.7163C27.8719 34.9181 28.125 33.06 28.125 31.1944V13.125C28.125 10.0237 25.6012 7.5 22.5 7.5ZM54.375 7.5H37.5C34.3988 7.5 31.875 10.0237 31.875 13.125V30C31.875 33.1012 34.3988 35.625 37.5 35.625H45.0694L42.2231 50.2687C42.1696 50.5401 42.1769 50.82 42.2446 51.0882C42.3124 51.3564 42.4387 51.6063 42.6147 51.8197C42.7907 52.0332 43.0118 52.2049 43.2622 52.3225C43.5125 52.4402 43.7859 52.5008 44.0625 52.5H50.1375C51.7687 52.5 53.2181 51.4331 53.7094 49.8881L59.1694 36.9412C59.1994 36.8662 59.2256 36.7912 59.2481 36.7144C59.7469 34.9162 60 33.0581 60 31.1944V13.125C60 10.0237 57.4762 7.5 54.375 7.5Z" fill="black"/>
</svg>
