<svg width="81" height="86" viewBox="0 0 81 86" fill="none" xmlns="http://www.w3.org/2000/svg">
<path d="M61.9449 51.6583C62.3446 50.6925 75.8571 28.0724 76.0199 27.0194C76.7552 24.4608 73.6796 22.2049 71.4793 23.7424C71.0496 24.0166 70.6881 24.3966 70.4335 24.8384L56.698 48.6289C54.6627 52.1482 59.9042 55.1953 61.9449 51.6583Z" fill="#050505"/>
<path d="M10.5402 60.7286C10.9399 59.7628 24.4524 37.1426 24.6152 36.0897C25.3505 33.5311 22.2748 31.2752 20.0746 32.8127C19.6448 33.0869 19.2833 33.4669 19.0287 33.9087L5.29325 57.6993C3.25804 61.2185 8.49934 64.2656 10.5402 60.7286Z" fill="#050505"/>
<path d="M48.3571 28.8428C39.8704 23.6791 28.1057 29.8145 27.5425 39.7487C26.4155 51.2351 39.9199 59.0278 49.3 52.3005C57.6009 46.8493 57.048 33.6218 48.3571 28.8428ZM54.9955 17.3449C72.1241 27.0283 73.1912 52.1968 56.8685 63.2275C38.139 76.2432 12.4149 61.3916 14.3235 38.6636C15.7164 19.0138 38.0453 7.35098 54.9955 17.3449Z" fill="#050505"/>
</svg>
