<svg width="20" height="20" viewBox="0 0 20 20" fill="none" xmlns="http://www.w3.org/2000/svg">
<path d="M17.1117 5.25066C15.8805 2.66941 13.343 1.03816 10.4867 1.00066C7.62421 0.963155 5.08671 2.53816 3.81171 5.12566C2.48671 7.8069 2.79921 10.9132 4.63671 13.2444L9.38046 19.2694C9.49885 19.4197 9.64979 19.5412 9.82192 19.6247C9.99405 19.7083 10.1829 19.7517 10.3742 19.7517C10.5655 19.7517 10.7544 19.7083 10.9265 19.6247C11.0986 19.5412 11.2496 19.4197 11.368 19.2694L16.2367 13.0819C18.0055 10.8319 18.3367 7.83816 17.1117 5.25691V5.25066ZM15.2617 12.3069L10.368 18.4944L5.62421 12.4694C4.09296 10.5257 3.83046 7.9194 4.93671 5.6819C5.99921 3.5319 8.03046 2.25691 10.3805 2.25691H10.4742C12.8867 2.29441 14.9492 3.61316 15.9867 5.7944C17.0242 7.97566 16.7555 10.4069 15.2617 12.3069Z" fill="#050505"/>
<path d="M10.3742 4.85065C8.49297 4.85065 6.96172 6.3819 6.96172 8.26315C6.96172 10.1444 8.49297 11.6757 10.3742 11.6757C12.2555 11.6757 13.7867 10.1444 13.7867 8.26315C13.7867 6.3819 12.2555 4.85065 10.3742 4.85065ZM10.3742 10.4194C9.80969 10.4058 9.27285 10.172 8.87838 9.76797C8.48391 9.3639 8.26309 8.8216 8.26309 8.2569C8.26309 7.69221 8.48391 7.14991 8.87838 6.74584C9.27285 6.34177 9.80969 6.10798 10.3742 6.0944C10.9387 6.10798 11.4756 6.34177 11.8701 6.74584C12.2645 7.14991 12.4853 7.69221 12.4853 8.2569C12.4853 8.8216 12.2645 9.3639 11.8701 9.76797C11.4756 10.172 10.9387 10.4058 10.3742 10.4194Z" fill="#050505"/>
</svg>
