<svg width="20" height="20" viewBox="0 0 20 20" fill="none" xmlns="http://www.w3.org/2000/svg">
<g clip-path="url(#clip0_374_3605)">
<path d="M10.7811 8.7905L1.99588 1.81287C1.78592 1.70785 1.55276 1.65781 1.3182 1.66743C1.08365 1.67704 0.855363 1.74601 0.654715 1.86787C0.455323 1.98715 0.29022 2.15603 0.175484 2.35807C0.0607484 2.56011 0.000291065 2.78842 0 3.02076L0 16.9803C0 17.4488 0.246444 17.8856 0.654715 18.1321C0.855628 18.2538 1.08406 18.3226 1.31875 18.3322C1.55344 18.3418 1.78674 18.2919 1.99693 18.1871L10.7822 11.2073C11.2052 10.8096 11.5395 10.5114 11.5395 9.99839C11.5395 9.48541 11.255 9.20935 10.7811 8.7905Z" fill="#E70303"/>
<path d="M19.2431 8.79049L10.4579 1.81286C10.2477 1.70784 10.0144 1.65781 9.77967 1.66743C9.54495 1.67704 9.3165 1.746 9.11565 1.86786C8.91626 1.98714 8.75116 2.15602 8.63642 2.35806C8.52169 2.5601 8.46123 2.78841 8.46094 3.02075V16.9802C8.46094 17.4488 8.70738 17.8856 9.11565 18.1321C9.31657 18.2537 9.545 18.3226 9.77969 18.3322C10.0144 18.3418 10.2477 18.2919 10.4579 18.1871L19.2431 11.2073C19.6662 10.8096 20.0004 10.5114 20.0004 9.99838C20.0004 9.4854 19.717 9.20934 19.2431 8.79049Z" fill="#E70303"/>
</g>
<defs>
<clipPath id="clip0_374_3605">
<rect width="20" height="20" fill="white"/>
</clipPath>
</defs>
</svg>
