<svg width="169" height="52" viewBox="0 0 169 52" fill="none" xmlns="http://www.w3.org/2000/svg">
<path d="M55.0793 29.0679C55.0793 27.3479 55.4293 25.8479 56.1293 24.5679C56.8293 23.2679 57.7993 22.2679 59.0393 21.5679C60.2793 20.8479 61.6993 20.4879 63.2993 20.4879C65.3593 20.4879 67.0593 21.0079 68.3993 22.0479C69.7593 23.0679 70.6693 24.5079 71.1293 26.3679H66.5993C66.3593 25.6479 65.9493 25.0879 65.3693 24.6879C64.8093 24.2679 64.1093 24.0579 63.2693 24.0579C62.0693 24.0579 61.1193 24.4979 60.4193 25.3779C59.7193 26.2379 59.3693 27.4679 59.3693 29.0679C59.3693 30.6479 59.7193 31.8779 60.4193 32.7579C61.1193 33.6179 62.0693 34.0479 63.2693 34.0479C64.9693 34.0479 66.0793 33.2879 66.5993 31.7679H71.1293C70.6693 33.5679 69.7593 34.9979 68.3993 36.0579C67.0393 37.1179 65.3393 37.6479 63.2993 37.6479C61.6993 37.6479 60.2793 37.2979 59.0393 36.5979C57.7993 35.8779 56.8293 34.8779 56.1293 33.5979C55.4293 32.2979 55.0793 30.7879 55.0793 29.0679ZM76.3362 18.7779C75.5962 18.7779 74.9762 18.5479 74.4762 18.0879C73.9962 17.6079 73.7562 17.0179 73.7562 16.3179C73.7562 15.6179 73.9962 15.0379 74.4762 14.5779C74.9762 14.0979 75.5962 13.8579 76.3362 13.8579C77.0762 13.8579 77.6862 14.0979 78.1662 14.5779C78.6662 15.0379 78.9162 15.6179 78.9162 16.3179C78.9162 17.0179 78.6662 17.6079 78.1662 18.0879C77.6862 18.5479 77.0762 18.7779 76.3362 18.7779ZM78.4062 20.7579V37.3779H74.2062V20.7579H78.4062ZM87.4458 24.2079V32.2479C87.4458 32.8079 87.5758 33.2179 87.8358 33.4779C88.1158 33.7179 88.5758 33.8379 89.2158 33.8379H91.1658V37.3779H88.5258C84.9858 37.3779 83.2158 35.6579 83.2158 32.2179V24.2079H81.2358V20.7579H83.2158V16.6479H87.4458V20.7579H91.1658V24.2079H87.4458ZM110.087 20.7579L99.7967 45.2379H95.3267L98.9267 36.9579L92.2667 20.7579H96.9767L101.267 32.3679L105.617 20.7579H110.087ZM111.271 29.0079C111.271 27.3279 111.601 25.8379 112.261 24.5379C112.941 23.2379 113.851 22.2379 114.991 21.5379C116.151 20.8379 117.441 20.4879 118.861 20.4879C120.101 20.4879 121.181 20.7379 122.101 21.2379C123.041 21.7379 123.791 22.3679 124.351 23.1279V20.7579H128.581V37.3779H124.351V34.9479C123.811 35.7279 123.061 36.3779 122.101 36.8979C121.161 37.3979 120.071 37.6479 118.831 37.6479C117.431 37.6479 116.151 37.2879 114.991 36.5679C113.851 35.8479 112.941 34.8379 112.261 33.5379C111.601 32.2179 111.271 30.7079 111.271 29.0079ZM124.351 29.0679C124.351 28.0479 124.151 27.1779 123.751 26.4579C123.351 25.7179 122.811 25.1579 122.131 24.7779C121.451 24.3779 120.721 24.1779 119.941 24.1779C119.161 24.1779 118.441 24.3679 117.781 24.7479C117.121 25.1279 116.581 25.6879 116.161 26.4279C115.761 27.1479 115.561 28.0079 115.561 29.0079C115.561 30.0079 115.761 30.8879 116.161 31.6479C116.581 32.3879 117.121 32.9579 117.781 33.3579C118.461 33.7579 119.181 33.9579 119.941 33.9579C120.721 33.9579 121.451 33.7679 122.131 33.3879C122.811 32.9879 123.351 32.4279 123.751 31.7079C124.151 30.9679 124.351 30.0879 124.351 29.0679ZM131.603 29.0079C131.603 27.3279 131.933 25.8379 132.593 24.5379C133.273 23.2379 134.193 22.2379 135.353 21.5379C136.513 20.8379 137.803 20.4879 139.223 20.4879C140.303 20.4879 141.333 20.7279 142.313 21.2079C143.293 21.6679 144.073 22.2879 144.653 23.0679V15.1779H148.913V37.3779H144.653V34.9179C144.133 35.7379 143.403 36.3979 142.463 36.8979C141.523 37.3979 140.433 37.6479 139.193 37.6479C137.793 37.6479 136.513 37.2879 135.353 36.5679C134.193 35.8479 133.273 34.8379 132.593 33.5379C131.933 32.2179 131.603 30.7079 131.603 29.0079ZM144.683 29.0679C144.683 28.0479 144.483 27.1779 144.083 26.4579C143.683 25.7179 143.143 25.1579 142.463 24.7779C141.783 24.3779 141.053 24.1779 140.273 24.1779C139.493 24.1779 138.773 24.3679 138.113 24.7479C137.453 25.1279 136.913 25.6879 136.493 26.4279C136.093 27.1479 135.893 28.0079 135.893 29.0079C135.893 30.0079 136.093 30.8879 136.493 31.6479C136.913 32.3879 137.453 32.9579 138.113 33.3579C138.793 33.7579 139.513 33.9579 140.273 33.9579C141.053 33.9579 141.783 33.7679 142.463 33.3879C143.143 32.9879 143.683 32.4279 144.083 31.7079C144.483 30.9679 144.683 30.0879 144.683 29.0679ZM159.375 37.6479C158.015 37.6479 156.795 37.4079 155.715 36.9279C154.635 36.4279 153.775 35.7579 153.135 34.9179C152.515 34.0779 152.175 33.1479 152.115 32.1279H156.345C156.425 32.7679 156.735 33.2979 157.275 33.7179C157.835 34.1379 158.525 34.3479 159.345 34.3479C160.145 34.3479 160.765 34.1879 161.205 33.8679C161.665 33.5479 161.895 33.1379 161.895 32.6379C161.895 32.0979 161.615 31.6979 161.055 31.4379C160.515 31.1579 159.645 30.8579 158.445 30.5379C157.205 30.2379 156.185 29.9279 155.385 29.6079C154.605 29.2879 153.925 28.7979 153.345 28.1379C152.785 27.4779 152.505 26.5879 152.505 25.4679C152.505 24.5479 152.765 23.7079 153.285 22.9479C153.825 22.1879 154.585 21.5879 155.565 21.1479C156.565 20.7079 157.735 20.4879 159.075 20.4879C161.055 20.4879 162.635 20.9879 163.815 21.9879C164.995 22.9679 165.645 24.2979 165.765 25.9779H161.745C161.685 25.3179 161.405 24.7979 160.905 24.4179C160.425 24.0179 159.775 23.8179 158.955 23.8179C158.195 23.8179 157.605 23.9579 157.185 24.2379C156.785 24.5179 156.585 24.9079 156.585 25.4079C156.585 25.9679 156.865 26.3979 157.425 26.6979C157.985 26.9779 158.855 27.2679 160.035 27.5679C161.235 27.8679 162.225 28.1779 163.005 28.4979C163.785 28.8179 164.455 29.3179 165.015 29.9979C165.595 30.6579 165.895 31.5379 165.915 32.6379C165.915 33.5979 165.645 34.4579 165.105 35.2179C164.585 35.9779 163.825 36.5779 162.825 37.0179C161.845 37.4379 160.695 37.6479 159.375 37.6479Z" fill="#050505"/>
<path d="M37.7888 31.0887C38.0293 30.5074 46.1613 16.8944 46.2593 16.2607C46.7018 14.7208 44.8509 13.3632 43.5267 14.2885C43.2681 14.4536 43.0506 14.6822 42.8973 14.9481L34.6311 29.2656C33.4063 31.3835 36.5606 33.2173 37.7888 31.0887Z" fill="#050505"/>
<path d="M6.85275 36.548C7.09329 35.9667 15.2253 22.3536 15.3233 21.72C15.7658 20.1801 13.9148 18.8225 12.5907 19.7478C12.332 19.9129 12.1145 20.1415 11.9613 20.4074L3.69507 34.7249C2.47025 36.8428 5.62454 38.6766 6.85275 36.548Z" fill="#050505"/>
<path d="M29.6115 17.3584C24.504 14.2509 17.4239 17.9432 17.0849 23.9217C16.4067 30.8344 24.5338 35.5241 30.1789 31.4756C35.1745 28.195 34.8418 20.2345 29.6115 17.3584ZM33.6065 10.4388C43.9147 16.2664 44.5569 31.4132 34.7337 38.0516C23.4621 45.8846 7.98092 36.9467 9.12959 23.2687C9.96785 11.4432 23.4056 4.42436 33.6065 10.4388Z" fill="#050505"/>
</svg>
