<svg width="168" height="52" viewBox="0 0 168 52" fill="none" xmlns="http://www.w3.org/2000/svg">
<path d="M54.5699 29.0679C54.5699 27.3479 54.9199 25.8479 55.6199 24.5679C56.3199 23.2679 57.2899 22.2679 58.5299 21.5679C59.7699 20.8479 61.1899 20.4879 62.7899 20.4879C64.8499 20.4879 66.5499 21.0079 67.8899 22.0479C69.2499 23.0679 70.1599 24.5079 70.6199 26.3679H66.0899C65.8499 25.6479 65.4399 25.0879 64.8599 24.6879C64.2999 24.2679 63.5999 24.0579 62.7599 24.0579C61.5599 24.0579 60.6099 24.4979 59.9099 25.3779C59.2099 26.2379 58.8599 27.4679 58.8599 29.0679C58.8599 30.6479 59.2099 31.8779 59.9099 32.7579C60.6099 33.6179 61.5599 34.0479 62.7599 34.0479C64.4599 34.0479 65.5699 33.2879 66.0899 31.7679H70.6199C70.1599 33.5679 69.2499 34.9979 67.8899 36.0579C66.5299 37.1179 64.8299 37.6479 62.7899 37.6479C61.1899 37.6479 59.7699 37.2979 58.5299 36.5979C57.2899 35.8779 56.3199 34.8779 55.6199 33.5979C54.9199 32.2979 54.5699 30.7879 54.5699 29.0679ZM75.8268 18.7779C75.0868 18.7779 74.4668 18.5479 73.9668 18.0879C73.4868 17.6079 73.2468 17.0179 73.2468 16.3179C73.2468 15.6179 73.4868 15.0379 73.9668 14.5779C74.4668 14.0979 75.0868 13.8579 75.8268 13.8579C76.5668 13.8579 77.1768 14.0979 77.6568 14.5779C78.1568 15.0379 78.4068 15.6179 78.4068 16.3179C78.4068 17.0179 78.1568 17.6079 77.6568 18.0879C77.1768 18.5479 76.5668 18.7779 75.8268 18.7779ZM77.8968 20.7579V37.3779H73.6968V20.7579H77.8968ZM86.9364 24.2079V32.2479C86.9364 32.8079 87.0664 33.2179 87.3264 33.4779C87.6064 33.7179 88.0664 33.8379 88.7064 33.8379H90.6564V37.3779H88.0164C84.4764 37.3779 82.7064 35.6579 82.7064 32.2179V24.2079H80.7264V20.7579H82.7064V16.6479H86.9364V20.7579H90.6564V24.2079H86.9364ZM109.577 20.7579L99.2873 45.2379H94.8173L98.4173 36.9579L91.7573 20.7579H96.4673L100.757 32.3679L105.107 20.7579H109.577ZM110.761 29.0079C110.761 27.3279 111.091 25.8379 111.751 24.5379C112.431 23.2379 113.341 22.2379 114.481 21.5379C115.641 20.8379 116.931 20.4879 118.351 20.4879C119.591 20.4879 120.671 20.7379 121.591 21.2379C122.531 21.7379 123.281 22.3679 123.841 23.1279V20.7579H128.071V37.3779H123.841V34.9479C123.301 35.7279 122.551 36.3779 121.591 36.8979C120.651 37.3979 119.561 37.6479 118.321 37.6479C116.921 37.6479 115.641 37.2879 114.481 36.5679C113.341 35.8479 112.431 34.8379 111.751 33.5379C111.091 32.2179 110.761 30.7079 110.761 29.0079ZM123.841 29.0679C123.841 28.0479 123.641 27.1779 123.241 26.4579C122.841 25.7179 122.301 25.1579 121.621 24.7779C120.941 24.3779 120.211 24.1779 119.431 24.1779C118.651 24.1779 117.931 24.3679 117.271 24.7479C116.611 25.1279 116.071 25.6879 115.651 26.4279C115.251 27.1479 115.051 28.0079 115.051 29.0079C115.051 30.0079 115.251 30.8879 115.651 31.6479C116.071 32.3879 116.611 32.9579 117.271 33.3579C117.951 33.7579 118.671 33.9579 119.431 33.9579C120.211 33.9579 120.941 33.7679 121.621 33.3879C122.301 32.9879 122.841 32.4279 123.241 31.7079C123.641 30.9679 123.841 30.0879 123.841 29.0679ZM131.093 29.0079C131.093 27.3279 131.423 25.8379 132.083 24.5379C132.763 23.2379 133.683 22.2379 134.843 21.5379C136.003 20.8379 137.293 20.4879 138.713 20.4879C139.793 20.4879 140.823 20.7279 141.803 21.2079C142.783 21.6679 143.563 22.2879 144.143 23.0679V15.1779H148.403V37.3779H144.143V34.9179C143.623 35.7379 142.893 36.3979 141.953 36.8979C141.013 37.3979 139.923 37.6479 138.683 37.6479C137.283 37.6479 136.003 37.2879 134.843 36.5679C133.683 35.8479 132.763 34.8379 132.083 33.5379C131.423 32.2179 131.093 30.7079 131.093 29.0079ZM144.173 29.0679C144.173 28.0479 143.973 27.1779 143.573 26.4579C143.173 25.7179 142.633 25.1579 141.953 24.7779C141.273 24.3779 140.543 24.1779 139.763 24.1779C138.983 24.1779 138.263 24.3679 137.603 24.7479C136.943 25.1279 136.403 25.6879 135.983 26.4279C135.583 27.1479 135.383 28.0079 135.383 29.0079C135.383 30.0079 135.583 30.8879 135.983 31.6479C136.403 32.3879 136.943 32.9579 137.603 33.3579C138.283 33.7579 139.003 33.9579 139.763 33.9579C140.543 33.9579 141.273 33.7679 141.953 33.3879C142.633 32.9879 143.173 32.4279 143.573 31.7079C143.973 30.9679 144.173 30.0879 144.173 29.0679ZM158.865 37.6479C157.505 37.6479 156.285 37.4079 155.205 36.9279C154.125 36.4279 153.265 35.7579 152.625 34.9179C152.005 34.0779 151.665 33.1479 151.605 32.1279H155.835C155.915 32.7679 156.225 33.2979 156.765 33.7179C157.325 34.1379 158.015 34.3479 158.835 34.3479C159.635 34.3479 160.255 34.1879 160.695 33.8679C161.155 33.5479 161.385 33.1379 161.385 32.6379C161.385 32.0979 161.105 31.6979 160.545 31.4379C160.005 31.1579 159.135 30.8579 157.935 30.5379C156.695 30.2379 155.675 29.9279 154.875 29.6079C154.095 29.2879 153.415 28.7979 152.835 28.1379C152.275 27.4779 151.995 26.5879 151.995 25.4679C151.995 24.5479 152.255 23.7079 152.775 22.9479C153.315 22.1879 154.075 21.5879 155.055 21.1479C156.055 20.7079 157.225 20.4879 158.565 20.4879C160.545 20.4879 162.125 20.9879 163.305 21.9879C164.485 22.9679 165.135 24.2979 165.255 25.9779H161.235C161.175 25.3179 160.895 24.7979 160.395 24.4179C159.915 24.0179 159.265 23.8179 158.445 23.8179C157.685 23.8179 157.095 23.9579 156.675 24.2379C156.275 24.5179 156.075 24.9079 156.075 25.4079C156.075 25.9679 156.355 26.3979 156.915 26.6979C157.475 26.9779 158.345 27.2679 159.525 27.5679C160.725 27.8679 161.715 28.1779 162.495 28.4979C163.275 28.8179 163.945 29.3179 164.505 29.9979C165.085 30.6579 165.385 31.5379 165.405 32.6379C165.405 33.5979 165.135 34.4579 164.595 35.2179C164.075 35.9779 163.315 36.5779 162.315 37.0179C161.335 37.4379 160.185 37.6479 158.865 37.6479Z" fill="white"/>
<path d="M37.2794 31.0886C37.5199 30.5074 45.6519 16.8943 45.7499 16.2606C46.1924 14.7208 44.3415 13.3632 43.0173 14.2884C42.7587 14.4535 42.5412 14.6822 42.3879 14.9481L34.1217 29.2655C32.8969 31.3834 36.0512 33.2172 37.2794 31.0886Z" fill="white"/>
<path d="M6.34335 36.5476C6.5839 35.9664 14.7159 22.3533 14.8139 21.7196C15.2564 20.1798 13.4054 18.8222 12.0813 19.7474C11.8226 19.9125 11.6051 20.1411 11.4519 20.4071L3.18567 34.7245C1.96085 36.8425 5.11514 38.6762 6.34335 36.5476Z" fill="white"/>
<path d="M29.1021 17.3581C23.9946 14.2505 16.9145 17.9429 16.5755 23.9214C15.8973 30.8341 24.0244 35.5238 29.6695 31.4753C34.6651 28.1947 34.3324 20.2342 29.1021 17.3581ZM33.0971 10.4385C43.4053 16.2661 44.0475 31.4129 34.2243 38.0513C22.9527 45.8843 7.47152 36.9464 8.62019 23.2684C9.45845 11.4429 22.8962 4.42404 33.0971 10.4385Z" fill="white"/>
</svg>
