<svg width="20" height="20" viewBox="0 0 20 20" fill="none" xmlns="http://www.w3.org/2000/svg">
<path d="M11.81 18.9583H3.33335C2.72577 18.9577 2.14326 18.716 1.71363 18.2864C1.284 17.8568 1.04235 17.2743 1.04169 16.6667V4.16667C1.04235 3.55908 1.284 2.97657 1.71363 2.54694C2.14326 2.11732 2.72577 1.87566 3.33335 1.875H16.6667C17.2743 1.87566 17.8568 2.11732 18.2864 2.54694C18.716 2.97657 18.9577 3.55908 18.9584 4.16667V11.8092C18.9592 12.1103 18.9002 12.4087 18.7849 12.6869C18.6696 12.9651 18.5003 13.2177 18.2867 13.43L13.43 18.2867C13.2178 18.5002 12.9654 18.6695 12.6873 18.7847C12.4092 18.9 12.111 18.959 11.81 18.9583ZM3.33335 3.125C3.05715 3.12522 2.79233 3.23504 2.59703 3.43034C2.40173 3.62564 2.29191 3.89047 2.29169 4.16667V16.6667C2.29191 16.9429 2.40173 17.2077 2.59703 17.403C2.79233 17.5983 3.05715 17.7081 3.33335 17.7083H11.81C12.0862 17.7077 12.3509 17.5981 12.5467 17.4033L17.4034 12.5467C17.5005 12.45 17.5774 12.3351 17.6298 12.2085C17.6822 12.0819 17.7089 11.9462 17.7084 11.8092V4.16667C17.7081 3.89047 17.5983 3.62564 17.403 3.43034C17.2077 3.23504 16.9429 3.12522 16.6667 3.125H3.33335Z" fill="#050505"/>
<path d="M5.83335 4.79199C5.66759 4.79199 5.50862 4.72614 5.39141 4.60893C5.2742 4.49172 5.20835 4.33275 5.20835 4.16699V1.66699C5.20835 1.50123 5.2742 1.34226 5.39141 1.22505C5.50862 1.10784 5.66759 1.04199 5.83335 1.04199C5.99911 1.04199 6.15809 1.10784 6.2753 1.22505C6.39251 1.34226 6.45835 1.50123 6.45835 1.66699V4.16699C6.45835 4.33275 6.39251 4.49172 6.2753 4.60893C6.15809 4.72614 5.99911 4.79199 5.83335 4.79199ZM10 4.79199C9.83426 4.79199 9.67529 4.72614 9.55808 4.60893C9.44087 4.49172 9.37502 4.33275 9.37502 4.16699V1.66699C9.37502 1.50123 9.44087 1.34226 9.55808 1.22505C9.67529 1.10784 9.83426 1.04199 10 1.04199C10.1658 1.04199 10.3248 1.10784 10.442 1.22505C10.5592 1.34226 10.625 1.50123 10.625 1.66699V4.16699C10.625 4.33275 10.5592 4.49172 10.442 4.60893C10.3248 4.72614 10.1658 4.79199 10 4.79199ZM14.1667 4.79199C14.0009 4.79199 13.842 4.72614 13.7247 4.60893C13.6075 4.49172 13.5417 4.33275 13.5417 4.16699V1.66699C13.5417 1.50123 13.6075 1.34226 13.7247 1.22505C13.842 1.10784 14.0009 1.04199 14.1667 1.04199C14.3324 1.04199 14.4914 1.10784 14.6086 1.22505C14.7258 1.34226 14.7917 1.50123 14.7917 1.66699V4.16699C14.7917 4.33275 14.7258 4.49172 14.6086 4.60893C14.4914 4.72614 14.3324 4.79199 14.1667 4.79199ZM18.3334 7.29199H1.66669C1.50093 7.29199 1.34196 7.22614 1.22475 7.10893C1.10754 6.99172 1.04169 6.83275 1.04169 6.66699C1.04169 6.50123 1.10754 6.34226 1.22475 6.22505C1.34196 6.10784 1.50093 6.04199 1.66669 6.04199H18.3334C18.4991 6.04199 18.6581 6.10784 18.7753 6.22505C18.8925 6.34226 18.9584 6.50123 18.9584 6.66699C18.9584 6.83275 18.8925 6.99172 18.7753 7.10893C18.6581 7.22614 18.4991 7.29199 18.3334 7.29199ZM12.5 18.8087C12.3343 18.8087 12.1753 18.7428 12.0581 18.6256C11.9409 18.5084 11.875 18.3494 11.875 18.1837V13.3337C11.8755 12.947 12.0292 12.5763 12.3026 12.3029C12.576 12.0296 12.9467 11.8758 13.3334 11.8753H18.1834C18.3491 11.8753 18.5081 11.9412 18.6253 12.0584C18.7425 12.1756 18.8084 12.3346 18.8084 12.5003C18.8084 12.6661 18.7425 12.8251 18.6253 12.9423C18.5081 13.0595 18.3491 13.1253 18.1834 13.1253H13.3334C13.2783 13.126 13.2257 13.1481 13.1868 13.1871C13.1478 13.226 13.1257 13.2786 13.125 13.3337V18.1837C13.125 18.3494 13.0592 18.5084 12.942 18.6256C12.8248 18.7428 12.6658 18.8087 12.5 18.8087Z" fill="#050505"/>
</svg>
