<svg width="20" height="20" viewBox="0 0 20 20" fill="none" xmlns="http://www.w3.org/2000/svg">
<path fill-rule="evenodd" clip-rule="evenodd" d="M18.0813 13.1946C18.0813 14.8835 16.7074 16.2552 15.0207 16.2552H4.97939C3.29263 16.2552 1.91876 14.8834 1.91876 13.1946V6.80543C1.91838 6.26111 2.06421 5.72667 2.34099 5.25797L7.24052 10.1575C7.97353 10.8927 8.95513 11.2977 10.0011 11.2977C11.0449 11.2977 12.0265 10.8927 12.7595 10.1575L17.659 5.25797C17.9358 5.72666 18.0816 6.2611 18.0812 6.80543V13.1946H18.0813ZM15.0206 3.74484H4.97939C4.28282 3.74484 3.63982 3.98059 3.12544 4.37281L8.07427 9.32379C8.58654 9.83387 9.27021 10.1168 10.0011 10.1168C10.7298 10.1168 11.4135 9.83387 11.9257 9.32379L16.8745 4.37281C16.3602 3.98059 15.7172 3.74484 15.0206 3.74484ZM15.0206 2.56391H4.97939C2.64107 2.56391 0.737823 4.46715 0.737823 6.80547V13.1946C0.737823 15.5351 2.64107 17.4362 4.97939 17.4362H15.0206C17.359 17.4362 19.2622 15.5351 19.2622 13.1946V6.80543C19.2622 4.46711 17.359 2.56391 15.0206 2.56391Z" fill="#050505"/>
</svg>
