<svg width="60" height="60" viewBox="0 0 60 60" fill="none" xmlns="http://www.w3.org/2000/svg">
<g clip-path="url(#clip0_372_2889)">
<path d="M60.0004 40.6054C60.0004 33.1599 55.7289 26.515 49.3316 23.2827C49.1331 37.5585 37.559 49.1326 23.2832 49.3312C26.5155 55.7284 33.1604 59.9999 40.6059 59.9999C44.0969 59.9999 47.4916 59.0701 50.4742 57.3037L59.9157 59.9152L57.3041 50.4739C59.0706 47.4911 60.0004 44.0963 60.0004 40.6054Z" fill="white"/>
<path d="M45.8203 22.9102C45.8203 10.2773 35.543 0 22.9102 0C10.2773 0 0 10.2773 0 22.9102C0 27.0273 1.09594 31.0359 3.17695 34.5552L0.0841406 45.7356L11.265 42.6435C14.7844 44.7244 18.793 45.8203 22.9102 45.8203C35.543 45.8203 45.8203 35.543 45.8203 22.9102ZM19.3945 17.5781H15.8789C15.8789 13.7009 19.0329 10.5469 22.9102 10.5469C26.7874 10.5469 29.9414 13.7009 29.9414 17.5781C29.9414 19.5461 29.1082 21.4376 27.6548 22.7668L24.668 25.5006V28.2422H21.1523V23.9525L25.2813 20.1732C26.0193 19.498 26.4258 18.5766 26.4258 17.5781C26.4258 15.6395 24.8488 14.0625 22.9102 14.0625C20.9715 14.0625 19.3945 15.6395 19.3945 17.5781ZM21.1523 31.7578H24.668V35.2734H21.1523V31.7578Z" fill="white"/>
</g>
<defs>
<clipPath id="clip0_372_2889">
<rect width="60" height="60" fill="white"/>
</clipPath>
</defs>
</svg>
