<svg width="106" height="75" viewBox="0 0 106 75" fill="none" xmlns="http://www.w3.org/2000/svg">
<path d="M2.19078 1.66773C18.2802 14.3886 34.5266 30.6129 37.4178 51.9935C37.8686 55.3275 37.7424 63.4537 32.6936 63.4536C28.2629 63.4535 22.1876 58.2145 21.3995 54.0514C19.3481 43.2161 20.14 28.7786 34.9045 29.899C50.9777 31.1188 68.8848 42.0154 81.7548 51.239C87.9973 55.7128 95.1593 61.5921 99.8734 67.6919C103.003 71.7412 99.3355 69.3818 96.3004 68.2144C91.9838 66.554 82.0164 62.7201 91.573 66.396C95.4562 67.8896 99.4661 70.1334 102.567 72.4688C105.882 74.9657 101.924 68.4124 101.678 67.3848C100.902 64.1454 100.493 59.2325 101.71 56.0693" stroke="#1C1C1C" stroke-width="3" stroke-linecap="round"/>
</svg>
