<svg width="30" height="30" viewBox="0 0 30 30" fill="none" xmlns="http://www.w3.org/2000/svg">
<path d="M1.02974 16.8291L2.89408 14.9647L4.13702 16.2077L2.27269 18.0721L1.02974 16.8291ZM1.02956 7.89803L2.27251 6.65508L4.13697 8.51947L2.89396 9.76242L1.02956 7.89803ZM-4.57764e-05 11.4844H2.63667V13.2422H-4.57764e-05V11.4844ZM25.8626 16.2076L27.1055 14.9647L28.9699 16.8291L27.727 18.0721L25.8626 16.2076ZM25.8628 8.519L27.7272 6.65467L28.9701 7.89762L27.1058 9.76195L25.8628 8.519ZM27.3632 11.4844H30V13.2422H27.3632V11.4844ZM24.6679 24.7266V0H5.33199V24.7266H11.4843V28.2422H9.72652V30H20.2734V28.2422H18.5156V24.7266H24.6679ZM16.7578 28.2422H13.2421V24.7266H16.7578V28.2422ZM7.0898 22.9688V1.75781H22.9101V22.9688H7.0898Z" fill="#050505"/>
</svg>
