<svg width="30" height="30" viewBox="0 0 30 30" fill="none" xmlns="http://www.w3.org/2000/svg">
<g clip-path="url(#clip0_51_181)">
<path d="M1.02979 16.8291L2.89412 14.9647L4.13707 16.2077L2.27273 18.0721L1.02979 16.8291ZM1.02961 7.89803L2.27256 6.65508L4.13701 8.51947L2.894 9.76242L1.02961 7.89803ZM0 11.4844H2.63672L2.63672 13.2422H0L0 11.4844ZM25.8626 16.2076L27.1056 14.9647L28.97 16.8291L27.727 18.0721L25.8626 16.2076ZM25.8629 8.519L27.7272 6.65467L28.9702 7.89762L27.1058 9.76195L25.8629 8.519ZM27.3633 11.4844L30 11.4844V13.2422L27.3633 13.2422V11.4844ZM24.668 24.7266L24.668 0L5.33203 0L5.33203 24.7266L11.4844 24.7266L11.4844 28.2422L9.72656 28.2422V30L20.2734 30V28.2422H18.5156V24.7266H24.668ZM16.7578 28.2422H13.2422L13.2422 24.7266H16.7578V28.2422ZM7.08984 22.9688L7.08984 1.75781L22.9102 1.75781L22.9102 22.9688L7.08984 22.9688Z" fill="white"/>
</g>
<defs>
<clipPath id="clip0_51_181">
<rect width="30" height="30" fill="white"/>
</clipPath>
</defs>
</svg>
